 http://img249.imageshack.us/img249/8000/44797584020fcd09b14eod.jpg



[i][b]Also Known As: For Lung (Cantonese Title) / Huo Long (Mandarin Title)
Year: 2010
Country: Hong Kong
Director: Dante Lam
Genre: Action / Thriller
Runtime: 105 min
Language: Cantonese
Subtitles: English
Cast: Leon Lai, Richie Ren, Baoqiang Wang, Vivian Hsu, Michelle Ye, Kai Chi Liu, Wilfred Lau, Charles Ying, Kai Tan, Xiaojun Yue, Yan Tan, Kuan Tai Chen
IMDB: http://www.imdb.com/title/tt1602500/
Theatrical Release Date: 04/01/2010



Synopsis/ Plot:
The investigation of a prostitute homicide brings headstrong, heavy-handed Detective Manfred in an unlikely collaboration with sly, man-of-the-world Inspector Kee from the Narcotics Bureau.When the DNA samples of one of Manfreds fellow officers are found at the crime scene, implicating him as the prime suspect, Manfred must look beyond the obvious to get to the truth. Meanwhile, Kees uncanny eagerness to lend a helping hand every step of the way outside his own turf is beginning to smack of evil.In the line of fire between high levels of corruption and possible malice, Manfred must solve all the twists and turns of the mystery, trying to figure out who his enemy is and how to save his innocent partner from unfathomable disgrace. Unwittingly, he is about to open a Pandoras Box that will threaten to upend the entire Hong Kong Police Force.


General Info:
Complete name : Fire.Of.Conscience.2010.BRRip.H264.AAC-D34dLy.mp4
Format : MPEG-4
Format profile : Base Media
Codec ID : isom
File size : 351 MiB
Duration : 1h 45mn
Overall bit rate : 463 Kbps

Video Info:
ID : 1
Format : AVC
Format/Info : Advanced Video Codec
Format profile : High@L3.2
Format settings, CABAC : Yes
Format settings, ReFrames : 3 frames
Codec ID : avc1
Codec ID/Info : Advanced Video Coding
Duration : 1h 45mn
Bit rate mode : Variable
Bit rate : 422 Kbps
Maximum bit rate : 6 203 Kbps
Width : 640 pixels
Height : 272 pixels
Display aspect ratio : 2.35:1
Frame rate mode : Constant
Frame rate : 24.000 fps
Resolution : 8 bits
Colorimetry : 4:2:0
Scan type : Progressive
Bits/(Pixel*Frame) : 0.101
Stream size : 319 MiB (91%)
Title : Imported with GPAC 0.4.6-DEV (build 1)
Writing library : x264 core 80 r1376M 3feaec2

Audio Info:
ID : 2
Format : AAC
Format/Info : Advanced Audio Codec
Format version : Version 4
Format profile : LC
Format settings, SBR : Yes
Format settings, PS : No
Codec ID : 40
Duration : 1h 45mn
Bit rate mode : Variable
Bit rate : 39.3 Kbps
Maximum bit rate : 62.1 Kbps
Channel(s) : 3 channels
Channel positions : Front: L C R
Sampling rate : 48.0 KHz
Stream size : 29.8 MiB (8%)


[/i][/b]
 
http://img594.imageshack.us/img594/2497/52668078.jpg 
http://img202.imageshack.us/img202/6479/79418037.jpg 
http://img39.imageshack.us/img39/9779/aaazx.jpg 
http://img229.imageshack.us/img229/5504/aaaaem.jpg 
http://img84.imageshack.us/img84/6074/aaaaai.jpg 
http://img522.imageshack.us/img522/9142/fireofconscience2010brr.jpg



